<svg width="340" height="230" viewBox="0 0 340 230" xmlns="http://www.w3.org/2000/svg" xmlns:xlink="http://www.w3.org/1999/xlink"><title>illu-placeholder-post-office</title><defs><path d="M.213 5.44c0 2.228 1.547 4.128 3.725 4.873V.566C1.76 1.313.213 3.212.213 5.439z" id="a"/><path d="M.166.25v.37h.026c1.882.015 3.4 1.541 3.386 3.409-.012 1.86-1.54 3.357-3.412 3.356v3.335c.134.013.27.017.406.017 2.729 0 4.943-2.353 4.943-5.252 0-2.9-2.214-5.25-4.943-5.25C.436.235.3.24.166.25z" id="c"/></defs><g fill="none" fill-rule="evenodd"><rect fill="#98C6EF" width="340" height="230" rx="3"/><path d="M0 140h340v87.006a2.99 2.99 0 0 1-2.991 2.994H2.991A2.994 2.994 0 0 1 0 227.006V140z" fill="#C1DCF8"/><path d="M231 166H126c-1.502 0-3-1.485-3-3V59c0-1.515 1.498-3 3-3h105c1.502 0 3 1.485 3 3v104c0 1.515-1.498 3-3 3" fill="#FFF"/><path fill="#7DB5DA" d="M184.783 93.698h41.887v43.981h-41.887z"/><path fill="#FFF" d="M220.387 95.792h-4.962l-21.217 42.934h4.961l21.218-42.934M232.953 89.51h-4.97l-19.115 38.745h4.97l19.115-38.746"/><path fill="#7DB5DA" d="M137 114h38v52h-38z"/><path fill="#D0D5D8" d="M137 114h16v52h-16z"/><path d="M231 56H126c-1.502 0-3 1.32-3 3v41c0 1.68 1.498 3 3 3h105c1.502 0 3-1.32 3-3V59c0-1.68-1.498-3-3-3" fill="#DC1928"/><path d="M164.887 75.372c0 5.507 3.48 10.2 8.377 12.043V63.33c-4.898 1.846-8.377 6.54-8.377 12.042M177.453 63.368v.923h.07c5.158.038 9.318 3.843 9.278 8.498-.03 4.637-4.218 8.37-9.348 8.365v8.313c.364.033.738.042 1.112.042 7.479 0 13.548-5.863 13.548-13.092 0-7.228-6.07-13.087-13.548-13.087-.374 0-.748.015-1.112.038" fill="#FFF"/><path d="M234 94H123v12c0 1.523 1.498 3 3 3h105c1.502 0 3-1.477 3-3V94" fill="#830E15"/><path d="M234 133c0-7.78-6.268-14-14-14s-14 6.22-14 14v33h28v-33" fill="#DC1928"/><path d="M215.15 128.778c0 2.155 1.306 3.992 3.142 4.713v-9.425c-1.836.722-3.141 2.559-3.141 4.712" fill="#FFF"/><g transform="translate(214.104 124.066)"><mask id="b" fill="#fff"><use xlink:href="#a"/></mask><path fill="#FFF" mask="url(#b)" d="M.213.566h3.724v9.748H.213z"/></g><path d="M219.34 124.081v.37h.025c1.842.015 3.327 1.536 3.314 3.398-.011 1.856-1.507 3.348-3.34 3.347v3.325c.131.013.264.017.398.017 2.67 0 4.838-2.346 4.838-5.237s-2.167-5.235-4.838-5.235c-.134 0-.267.006-.397.015" fill="#FFF"/><g transform="translate(219.34 124.066)"><mask id="d" fill="#fff"><use xlink:href="#c"/></mask><path fill="#FFF" mask="url(#d)" d="M.166.235h5.35v10.502H.165z"/></g><path d="M227.868 136.632h-16.01a.911.911 0 0 0-.896.921v3.394c0 .507.404.92.897.92h16.01a.911.911 0 0 0 .895-.92v-3.394a.911.911 0 0 0-.896-.92" fill="#830E15"/><g><path d="M124.764 129c-10.818.004-19.245 8.565-19.587 19.114-.498 15.39 12.796 19.305 18.32 29.18.86 1.54 1.675 1.54 2.535 0 5.524-9.875 18.817-13.79 18.32-29.18-.342-10.55-8.77-19.11-19.588-19.114z" fill="#276AAA"/><g opacity=".4"><ellipse opacity=".401" cx="21.5" cy="3" rx="21.5" ry="3" transform="translate(103 175.891)" fill="#D8D8D8"/></g><g fill="#FFF"><path d="M118.403 148a.405.405 0 0 0-.403.408v7.184c0 .225.178.408.392.408h4.216a.394.394 0 0 0 .392-.392v-4.216c0-.216.179-.392.392-.392h2.216c.216 0 .392.178.392.392v4.216c0 .216.178.392.392.392h4.216a.4.4 0 0 0 .392-.408v-7.184a.408.408 0 0 0-.403-.408h-12.194zM129.687 141.398c-.24-.351-1.006-.398-1.135-.398h-7.955c-.129 0-.486.092-1.07.49-.585.398-2.527 4.51-2.527 4.51-.208.256.126 1 1 1h13c.874 0 1.208-.744 1-1 0 0-2.074-4.25-2.313-4.602z"/></g></g></g></svg>